<svg width="60" height="30" viewBox="0 0 60 30" fill="none" xmlns="http://www.w3.org/2000/svg">
<path fill-rule="evenodd" clip-rule="evenodd" d="M39.1102 15.624C39.1102 15.624 38.2998 0 43.1623 0C48.0248 0 44.7831 9.37438 44.7831 9.37438C45.4167 9.1439 45.9059 8.9434 46.3296 8.76972C47.7347 8.19377 48.42 7.91288 51.2657 7.81198C55.3178 7.81198 59.2601 10.6113 59.3707 15.624C59.0413 20.7513 55.3186 23.4359 49.6457 23.4359C43.1623 23.4359 39.8469 21.4929 39.1102 15.624ZM53.9512 15.6242C54.6835 18.7487 51.8526 20.3114 49.264 20.3114C46.2264 20.169 44.8559 18.0601 45.3092 15.6242C45.5586 14.2838 46.7862 12.8384 48.4339 12.4994C51.768 11.8136 53.5326 13.8385 53.9512 15.6242ZM5.46801 6.24959C5.46801 6.06802 5.46988 5.45561 5.46801 5.27508C5.44576 3.12543 5.42133 1.55792 8.59394 1.55992C11.4103 1.56169 11.1848 3.65794 11.0108 5.27508C10.9723 5.6326 10.9364 5.96671 10.9364 6.24959C10.9364 6.8969 12.0097 7.00784 13.2668 7.13778C15.044 7.32147 17.1884 7.54313 17.1871 9.37178C17.1858 11.2204 15.4817 11.4043 13.8033 11.5854C12.6471 11.7102 11.5031 11.8337 10.9364 12.4992C9.54708 14.1307 10.4462 19.2762 12.4988 17.9676C15.4425 16.0908 16.4245 16.7012 17.186 17.1841C18.1204 17.7766 18.1366 19.3205 17.1871 20.3089C14.13 23.4909 11.3248 23.4563 9.6963 23.4362C9.58321 23.4348 9.4758 23.4334 9.37438 23.4333C4.47639 22.8161 4.6318 15.2796 4.67995 12.9449C4.6837 12.7627 4.68681 12.6122 4.68681 12.4992C4.68681 11.852 3.88268 11.7404 2.94058 11.6098C1.60835 11.425 0.000223568 11.2019 1.99538e-08 9.37171C-0.000204385 7.69739 1.57007 7.59398 3.02769 7.49799C4.2901 7.41486 5.46801 7.33729 5.46801 6.24959ZM23.8177 8.99066C22.3418 5.76629 20.1218 6.57251 19.3899 7.3785C18.6581 8.18449 18.4216 10.4424 19.3838 13.0212C20.4834 15.5025 21.8732 17.9676 24.998 20.3112C26.5604 21.0924 25.2645 22.7038 21.8732 24.9984C21.8732 24.9984 18.7484 26.511 18.7484 28.1232C18.7484 29.7353 19.5296 30.4667 23.4356 29.6855C25.3755 29.0241 26.9467 27.6153 28.032 26.6421L28.1228 26.5607C32.7386 22.4256 36.1083 18.2281 37.4971 14.0616C38.2783 11.718 38.2828 9.51642 37.4971 7.81195C36.754 6.19974 34.3974 5.92359 32.8099 9.37438C32.6468 9.72897 32.4435 10.3292 32.2017 11.0433C31.3436 13.5768 30.0003 17.5427 28.2455 17.0515C26.4407 16.5463 25.0015 12.3616 24.2465 10.1664C24.0604 9.62535 23.9159 9.20517 23.8177 8.99066Z" fill="black"/>
</svg>
